<mxfile host="app.diagrams.net" agent="Mozilla/5.0 (Macintosh; Intel Mac OS X 10_15_7) AppleWebKit/537.36 (KHTML, like Gecko) Chrome/128.0.0.0 Safari/537.36" version="24.7.14">
  <diagram name="Page-1" id="e7e014a7-5840-1c2e-5031-d8a46d1fe8dd">
    <mxGraphModel dx="4090" dy="2515" grid="1" gridSize="10" guides="1" tooltips="1" connect="1" arrows="1" fold="1" page="1" pageScale="1" pageWidth="1169" pageHeight="826" background="none" math="0" shadow="0">
      <root>
        <mxCell id="0" />
        <mxCell id="1" parent="0" />
        <mxCell id="70YwTGDPezHO6x178m7y-58" value="" style="endArrow=none;html=1;rounded=0;exitX=1;exitY=0.5;exitDx=0;exitDy=0;entryX=0;entryY=0.5;entryDx=0;entryDy=0;" parent="1" source="70YwTGDPezHO6x178m7y-44" target="70YwTGDPezHO6x178m7y-57" edge="1">
          <mxGeometry relative="1" as="geometry" />
        </mxCell>
        <mxCell id="_iF7SoQvkyXgK8WLzw-X-60" value="(0,n)" style="edgeLabel;html=1;align=center;verticalAlign=middle;resizable=0;points=[];" vertex="1" connectable="0" parent="70YwTGDPezHO6x178m7y-58">
          <mxGeometry x="-0.7019" relative="1" as="geometry">
            <mxPoint y="-1" as="offset" />
          </mxGeometry>
        </mxCell>
        <mxCell id="70YwTGDPezHO6x178m7y-72" value="" style="endArrow=none;html=1;rounded=0;exitX=0.5;exitY=1;exitDx=0;exitDy=0;entryX=0.5;entryY=0;entryDx=0;entryDy=0;" parent="1" source="70YwTGDPezHO6x178m7y-44" target="70YwTGDPezHO6x178m7y-71" edge="1">
          <mxGeometry relative="1" as="geometry" />
        </mxCell>
        <mxCell id="_iF7SoQvkyXgK8WLzw-X-100" value="(1,1)" style="edgeLabel;html=1;align=center;verticalAlign=middle;resizable=0;points=[];" vertex="1" connectable="0" parent="70YwTGDPezHO6x178m7y-72">
          <mxGeometry x="-0.7336" y="-1" relative="1" as="geometry">
            <mxPoint as="offset" />
          </mxGeometry>
        </mxCell>
        <mxCell id="70YwTGDPezHO6x178m7y-44" value="Company" style="rounded=0;whiteSpace=wrap;html=1;" parent="1" vertex="1">
          <mxGeometry x="420" y="359" width="410" height="60" as="geometry" />
        </mxCell>
        <mxCell id="70YwTGDPezHO6x178m7y-47" value="" style="endArrow=none;html=1;rounded=0;exitX=0.5;exitY=0;exitDx=0;exitDy=0;entryX=0;entryY=0.5;entryDx=0;entryDy=0;" parent="1" target="70YwTGDPezHO6x178m7y-48" edge="1">
          <mxGeometry width="50" height="50" relative="1" as="geometry">
            <mxPoint x="778.5" y="359" as="sourcePoint" />
            <mxPoint x="723.5" y="200" as="targetPoint" />
          </mxGeometry>
        </mxCell>
        <mxCell id="_iF7SoQvkyXgK8WLzw-X-59" value="postal_code" style="edgeLabel;html=1;align=center;verticalAlign=middle;resizable=0;points=[];" vertex="1" connectable="0" parent="70YwTGDPezHO6x178m7y-47">
          <mxGeometry x="0.7209" y="5" relative="1" as="geometry">
            <mxPoint y="-1" as="offset" />
          </mxGeometry>
        </mxCell>
        <mxCell id="70YwTGDPezHO6x178m7y-48" value="" style="ellipse;whiteSpace=wrap;html=1;aspect=fixed;rotation=-90;" parent="1" vertex="1">
          <mxGeometry x="760" y="150" width="37" height="37" as="geometry" />
        </mxCell>
        <mxCell id="70YwTGDPezHO6x178m7y-51" value="" style="endArrow=none;html=1;rounded=0;exitX=0.5;exitY=0;exitDx=0;exitDy=0;entryX=0;entryY=0.5;entryDx=0;entryDy=0;" parent="1" target="70YwTGDPezHO6x178m7y-52" edge="1">
          <mxGeometry width="50" height="50" relative="1" as="geometry">
            <mxPoint x="598.5" y="359" as="sourcePoint" />
            <mxPoint x="543.5" y="200" as="targetPoint" />
          </mxGeometry>
        </mxCell>
        <mxCell id="_iF7SoQvkyXgK8WLzw-X-56" value="address" style="edgeLabel;html=1;align=center;verticalAlign=middle;resizable=0;points=[];" vertex="1" connectable="0" parent="70YwTGDPezHO6x178m7y-51">
          <mxGeometry x="0.8227" y="1" relative="1" as="geometry">
            <mxPoint y="-1" as="offset" />
          </mxGeometry>
        </mxCell>
        <mxCell id="70YwTGDPezHO6x178m7y-52" value="" style="ellipse;whiteSpace=wrap;html=1;aspect=fixed;rotation=-90;" parent="1" vertex="1">
          <mxGeometry x="580" y="150" width="37" height="37" as="geometry" />
        </mxCell>
        <mxCell id="70YwTGDPezHO6x178m7y-53" value="" style="endArrow=none;html=1;rounded=0;exitX=0.5;exitY=0;exitDx=0;exitDy=0;entryX=0;entryY=0.5;entryDx=0;entryDy=0;" parent="1" target="70YwTGDPezHO6x178m7y-54" edge="1">
          <mxGeometry width="50" height="50" relative="1" as="geometry">
            <mxPoint x="548.5" y="359" as="sourcePoint" />
            <mxPoint x="493.5" y="200" as="targetPoint" />
          </mxGeometry>
        </mxCell>
        <mxCell id="_iF7SoQvkyXgK8WLzw-X-55" value="name" style="edgeLabel;html=1;align=center;verticalAlign=middle;resizable=0;points=[];" vertex="1" connectable="0" parent="70YwTGDPezHO6x178m7y-53">
          <mxGeometry x="0.8081" relative="1" as="geometry">
            <mxPoint y="-1" as="offset" />
          </mxGeometry>
        </mxCell>
        <mxCell id="70YwTGDPezHO6x178m7y-54" value="" style="ellipse;whiteSpace=wrap;html=1;aspect=fixed;rotation=-90;" parent="1" vertex="1">
          <mxGeometry x="530" y="150" width="37" height="37" as="geometry" />
        </mxCell>
        <mxCell id="70YwTGDPezHO6x178m7y-55" value="" style="endArrow=none;html=1;rounded=0;exitX=0.5;exitY=0;exitDx=0;exitDy=0;entryX=0;entryY=0.5;entryDx=0;entryDy=0;" parent="1" target="70YwTGDPezHO6x178m7y-56" edge="1">
          <mxGeometry width="50" height="50" relative="1" as="geometry">
            <mxPoint x="478.5" y="359" as="sourcePoint" />
            <mxPoint x="423.5" y="200" as="targetPoint" />
          </mxGeometry>
        </mxCell>
        <mxCell id="_iF7SoQvkyXgK8WLzw-X-54" value="company_code" style="edgeLabel;html=1;align=center;verticalAlign=middle;resizable=0;points=[];" vertex="1" connectable="0" parent="70YwTGDPezHO6x178m7y-55">
          <mxGeometry x="0.8227" y="-2" relative="1" as="geometry">
            <mxPoint y="-1" as="offset" />
          </mxGeometry>
        </mxCell>
        <mxCell id="70YwTGDPezHO6x178m7y-56" value="" style="ellipse;whiteSpace=wrap;html=1;aspect=fixed;rotation=-90;fillColor=black;" parent="1" vertex="1">
          <mxGeometry x="460" y="150" width="37" height="37" as="geometry" />
        </mxCell>
        <mxCell id="70YwTGDPezHO6x178m7y-60" value="" style="endArrow=none;html=1;rounded=0;exitX=1;exitY=0.5;exitDx=0;exitDy=0;entryX=0;entryY=0.5;entryDx=0;entryDy=0;" parent="1" source="70YwTGDPezHO6x178m7y-57" target="70YwTGDPezHO6x178m7y-59" edge="1">
          <mxGeometry relative="1" as="geometry" />
        </mxCell>
        <mxCell id="_iF7SoQvkyXgK8WLzw-X-61" value="(1,1)" style="edgeLabel;html=1;align=center;verticalAlign=middle;resizable=0;points=[];" vertex="1" connectable="0" parent="70YwTGDPezHO6x178m7y-60">
          <mxGeometry x="0.2658" y="2" relative="1" as="geometry">
            <mxPoint as="offset" />
          </mxGeometry>
        </mxCell>
        <mxCell id="70YwTGDPezHO6x178m7y-57" value="owns" style="rhombus;whiteSpace=wrap;html=1;rounded=0;" parent="1" vertex="1">
          <mxGeometry x="965" y="349" width="80" height="80" as="geometry" />
        </mxCell>
        <mxCell id="70YwTGDPezHO6x178m7y-68" value="" style="endArrow=none;html=1;rounded=0;entryX=0;entryY=0.5;entryDx=0;entryDy=0;exitX=1;exitY=0.5;exitDx=0;exitDy=0;" parent="1" edge="1">
          <mxGeometry relative="1" as="geometry">
            <mxPoint x="1250" y="419" as="sourcePoint" />
            <mxPoint x="1250" y="620" as="targetPoint" />
          </mxGeometry>
        </mxCell>
        <mxCell id="_iF7SoQvkyXgK8WLzw-X-87" value="(0,1)" style="edgeLabel;html=1;align=center;verticalAlign=middle;resizable=0;points=[];" vertex="1" connectable="0" parent="70YwTGDPezHO6x178m7y-68">
          <mxGeometry x="-0.8213" relative="1" as="geometry">
            <mxPoint as="offset" />
          </mxGeometry>
        </mxCell>
        <mxCell id="70YwTGDPezHO6x178m7y-59" value="Container" style="whiteSpace=wrap;html=1;rounded=0;" parent="1" vertex="1">
          <mxGeometry x="1140" y="359" width="220" height="60" as="geometry" />
        </mxCell>
        <mxCell id="70YwTGDPezHO6x178m7y-61" value="" style="endArrow=none;html=1;rounded=0;exitX=0.5;exitY=0;exitDx=0;exitDy=0;entryX=0;entryY=0.5;entryDx=0;entryDy=0;" parent="1" target="70YwTGDPezHO6x178m7y-62" edge="1">
          <mxGeometry width="50" height="50" relative="1" as="geometry">
            <mxPoint x="1178.5" y="359" as="sourcePoint" />
            <mxPoint x="1123.5" y="200" as="targetPoint" />
          </mxGeometry>
        </mxCell>
        <mxCell id="_iF7SoQvkyXgK8WLzw-X-62" value="container_id" style="edgeLabel;html=1;align=center;verticalAlign=middle;resizable=0;points=[];" vertex="1" connectable="0" parent="70YwTGDPezHO6x178m7y-61">
          <mxGeometry x="0.7645" y="1" relative="1" as="geometry">
            <mxPoint y="-1" as="offset" />
          </mxGeometry>
        </mxCell>
        <mxCell id="70YwTGDPezHO6x178m7y-62" value="" style="ellipse;whiteSpace=wrap;html=1;aspect=fixed;rotation=-90;fillColor=black;" parent="1" vertex="1">
          <mxGeometry x="1160" y="150" width="37" height="37" as="geometry" />
        </mxCell>
        <mxCell id="70YwTGDPezHO6x178m7y-63" value="" style="endArrow=none;html=1;rounded=0;exitX=0.5;exitY=0;exitDx=0;exitDy=0;entryX=0;entryY=0.5;entryDx=0;entryDy=0;" parent="1" target="70YwTGDPezHO6x178m7y-64" edge="1">
          <mxGeometry width="50" height="50" relative="1" as="geometry">
            <mxPoint x="1238.5" y="359" as="sourcePoint" />
            <mxPoint x="1183.5" y="200" as="targetPoint" />
          </mxGeometry>
        </mxCell>
        <mxCell id="_iF7SoQvkyXgK8WLzw-X-63" value="description" style="edgeLabel;html=1;align=center;verticalAlign=middle;resizable=0;points=[];" vertex="1" connectable="0" parent="70YwTGDPezHO6x178m7y-63">
          <mxGeometry x="0.7355" y="-3" relative="1" as="geometry">
            <mxPoint y="-1" as="offset" />
          </mxGeometry>
        </mxCell>
        <mxCell id="70YwTGDPezHO6x178m7y-64" value="" style="ellipse;whiteSpace=wrap;html=1;aspect=fixed;rotation=-90;" parent="1" vertex="1">
          <mxGeometry x="1220" y="150" width="37" height="37" as="geometry" />
        </mxCell>
        <mxCell id="70YwTGDPezHO6x178m7y-65" value="" style="endArrow=none;html=1;rounded=0;exitX=0.5;exitY=0;exitDx=0;exitDy=0;entryX=0;entryY=0.5;entryDx=0;entryDy=0;" parent="1" target="70YwTGDPezHO6x178m7y-66" edge="1">
          <mxGeometry width="50" height="50" relative="1" as="geometry">
            <mxPoint x="1298.5" y="359" as="sourcePoint" />
            <mxPoint x="1243.5" y="200" as="targetPoint" />
          </mxGeometry>
        </mxCell>
        <mxCell id="_iF7SoQvkyXgK8WLzw-X-64" value="is_yard" style="edgeLabel;html=1;align=center;verticalAlign=middle;resizable=0;points=[];" vertex="1" connectable="0" parent="70YwTGDPezHO6x178m7y-65">
          <mxGeometry x="0.7355" y="1" relative="1" as="geometry">
            <mxPoint y="-1" as="offset" />
          </mxGeometry>
        </mxCell>
        <mxCell id="70YwTGDPezHO6x178m7y-66" value="" style="ellipse;whiteSpace=wrap;html=1;aspect=fixed;rotation=-90;" parent="1" vertex="1">
          <mxGeometry x="1280" y="150" width="37" height="37" as="geometry" />
        </mxCell>
        <mxCell id="70YwTGDPezHO6x178m7y-70" value="" style="endArrow=none;html=1;rounded=0;entryX=0;entryY=0.5;entryDx=0;entryDy=0;exitX=0.5;exitY=1;exitDx=0;exitDy=0;" parent="1" source="70YwTGDPezHO6x178m7y-67" edge="1">
          <mxGeometry relative="1" as="geometry">
            <Array as="points">
              <mxPoint x="1250" y="820" />
              <mxPoint x="1280" y="820" />
            </Array>
            <mxPoint x="1390" y="820" as="targetPoint" />
          </mxGeometry>
        </mxCell>
        <mxCell id="_iF7SoQvkyXgK8WLzw-X-85" value="(0,n)" style="edgeLabel;html=1;align=center;verticalAlign=middle;resizable=0;points=[];" vertex="1" connectable="0" parent="70YwTGDPezHO6x178m7y-70">
          <mxGeometry x="0.8001" y="-1" relative="1" as="geometry">
            <mxPoint as="offset" />
          </mxGeometry>
        </mxCell>
        <mxCell id="70YwTGDPezHO6x178m7y-67" value="located on" style="rhombus;whiteSpace=wrap;html=1;rounded=0;" parent="1" vertex="1">
          <mxGeometry x="1190" y="620" width="120" height="100" as="geometry" />
        </mxCell>
        <mxCell id="70YwTGDPezHO6x178m7y-81" value="" style="endArrow=none;html=1;rounded=0;entryX=0.5;entryY=0;entryDx=0;entryDy=0;exitX=0;exitY=0.75;exitDx=0;exitDy=0;" parent="1" source="70YwTGDPezHO6x178m7y-69" target="70YwTGDPezHO6x178m7y-80" edge="1">
          <mxGeometry relative="1" as="geometry">
            <Array as="points">
              <mxPoint x="1280" y="855" />
            </Array>
          </mxGeometry>
        </mxCell>
        <mxCell id="_iF7SoQvkyXgK8WLzw-X-84" value="(1,1)" style="edgeLabel;html=1;align=center;verticalAlign=middle;resizable=0;points=[];" vertex="1" connectable="0" parent="70YwTGDPezHO6x178m7y-81">
          <mxGeometry x="-0.8256" y="-1" relative="1" as="geometry">
            <mxPoint as="offset" />
          </mxGeometry>
        </mxCell>
        <mxCell id="70YwTGDPezHO6x178m7y-69" value="Ship" style="whiteSpace=wrap;html=1;rounded=0;" parent="1" vertex="1">
          <mxGeometry x="1394.25" y="810" width="425.75" height="60" as="geometry" />
        </mxCell>
        <mxCell id="70YwTGDPezHO6x178m7y-75" value="" style="endArrow=none;html=1;rounded=0;exitX=0.5;exitY=1;exitDx=0;exitDy=0;entryX=0.5;entryY=0;entryDx=0;entryDy=0;" parent="1" source="70YwTGDPezHO6x178m7y-71" target="70YwTGDPezHO6x178m7y-74" edge="1">
          <mxGeometry relative="1" as="geometry" />
        </mxCell>
        <mxCell id="_iF7SoQvkyXgK8WLzw-X-101" value="(0,n)" style="edgeLabel;html=1;align=center;verticalAlign=middle;resizable=0;points=[];" vertex="1" connectable="0" parent="70YwTGDPezHO6x178m7y-75">
          <mxGeometry x="0.6375" relative="1" as="geometry">
            <mxPoint as="offset" />
          </mxGeometry>
        </mxCell>
        <mxCell id="70YwTGDPezHO6x178m7y-71" value="In" style="rhombus;whiteSpace=wrap;html=1;rounded=0;" parent="1" vertex="1">
          <mxGeometry x="542.5" y="630" width="165" height="80" as="geometry" />
        </mxCell>
        <mxCell id="70YwTGDPezHO6x178m7y-77" value="" style="endArrow=none;html=1;rounded=0;exitX=0.5;exitY=1;exitDx=0;exitDy=0;entryX=0.5;entryY=0;entryDx=0;entryDy=0;" parent="1" source="70YwTGDPezHO6x178m7y-74" target="70YwTGDPezHO6x178m7y-76" edge="1">
          <mxGeometry relative="1" as="geometry" />
        </mxCell>
        <mxCell id="_iF7SoQvkyXgK8WLzw-X-110" value="(1,1)" style="edgeLabel;html=1;align=center;verticalAlign=middle;resizable=0;points=[];" vertex="1" connectable="0" parent="70YwTGDPezHO6x178m7y-77">
          <mxGeometry x="-0.5711" y="-1" relative="1" as="geometry">
            <mxPoint as="offset" />
          </mxGeometry>
        </mxCell>
        <mxCell id="70YwTGDPezHO6x178m7y-74" value="City" style="whiteSpace=wrap;html=1;rounded=0;" parent="1" vertex="1">
          <mxGeometry x="565" y="870" width="120" height="60" as="geometry" />
        </mxCell>
        <mxCell id="70YwTGDPezHO6x178m7y-79" value="" style="endArrow=none;html=1;rounded=0;entryX=0.5;entryY=0;entryDx=0;entryDy=0;exitX=0.5;exitY=1;exitDx=0;exitDy=0;" parent="1" source="70YwTGDPezHO6x178m7y-76" target="70YwTGDPezHO6x178m7y-78" edge="1">
          <mxGeometry relative="1" as="geometry" />
        </mxCell>
        <mxCell id="_iF7SoQvkyXgK8WLzw-X-111" value="(0,n)" style="edgeLabel;html=1;align=center;verticalAlign=middle;resizable=0;points=[];" vertex="1" connectable="0" parent="70YwTGDPezHO6x178m7y-79">
          <mxGeometry x="0.397" relative="1" as="geometry">
            <mxPoint as="offset" />
          </mxGeometry>
        </mxCell>
        <mxCell id="70YwTGDPezHO6x178m7y-76" value="In" style="rhombus;whiteSpace=wrap;html=1;rounded=0;" parent="1" vertex="1">
          <mxGeometry x="585" y="1050" width="80" height="80" as="geometry" />
        </mxCell>
        <mxCell id="70YwTGDPezHO6x178m7y-78" value="Country" style="whiteSpace=wrap;html=1;rounded=0;" parent="1" vertex="1">
          <mxGeometry x="565" y="1240" width="120" height="60" as="geometry" />
        </mxCell>
        <mxCell id="70YwTGDPezHO6x178m7y-83" value="" style="endArrow=none;html=1;rounded=0;entryX=0.5;entryY=0;entryDx=0;entryDy=0;exitX=0.5;exitY=1;exitDx=0;exitDy=0;" parent="1" source="70YwTGDPezHO6x178m7y-80" target="70YwTGDPezHO6x178m7y-82" edge="1">
          <mxGeometry relative="1" as="geometry" />
        </mxCell>
        <mxCell id="_iF7SoQvkyXgK8WLzw-X-83" value="(0,1)" style="edgeLabel;html=1;align=center;verticalAlign=middle;resizable=0;points=[];" vertex="1" connectable="0" parent="70YwTGDPezHO6x178m7y-83">
          <mxGeometry x="0.5231" y="-3" relative="1" as="geometry">
            <mxPoint as="offset" />
          </mxGeometry>
        </mxCell>
        <mxCell id="70YwTGDPezHO6x178m7y-80" value="Occupies" style="rhombus;whiteSpace=wrap;html=1;rounded=0;" parent="1" vertex="1">
          <mxGeometry x="1240" y="1080" width="80" height="80" as="geometry" />
        </mxCell>
        <mxCell id="70YwTGDPezHO6x178m7y-82" value="Berth" style="whiteSpace=wrap;html=1;rounded=0;" parent="1" vertex="1">
          <mxGeometry x="1220" y="1290" width="120" height="60" as="geometry" />
        </mxCell>
        <mxCell id="70YwTGDPezHO6x178m7y-87" value="" style="endArrow=none;html=1;rounded=0;exitX=0.5;exitY=0;exitDx=0;exitDy=0;entryX=0;entryY=0.5;entryDx=0;entryDy=0;" parent="1" source="_iF7SoQvkyXgK8WLzw-X-97" target="70YwTGDPezHO6x178m7y-86" edge="1">
          <mxGeometry relative="1" as="geometry" />
        </mxCell>
        <mxCell id="70YwTGDPezHO6x178m7y-84" value="located in" style="rhombus;whiteSpace=wrap;html=1;rounded=0;" parent="1" vertex="1">
          <mxGeometry x="1469" y="349" width="171" height="80" as="geometry" />
        </mxCell>
        <mxCell id="_iF7SoQvkyXgK8WLzw-X-113" value="" style="endArrow=none;html=1;rounded=0;exitX=1;exitY=0.5;exitDx=0;exitDy=0;entryX=0;entryY=0.5;entryDx=0;entryDy=0;" edge="1" parent="1" source="70YwTGDPezHO6x178m7y-86" target="_iF7SoQvkyXgK8WLzw-X-112">
          <mxGeometry relative="1" as="geometry" />
        </mxCell>
        <mxCell id="_iF7SoQvkyXgK8WLzw-X-116" value="(1,1)" style="edgeLabel;html=1;align=center;verticalAlign=middle;resizable=0;points=[];" vertex="1" connectable="0" parent="_iF7SoQvkyXgK8WLzw-X-113">
          <mxGeometry x="-0.6069" relative="1" as="geometry">
            <mxPoint as="offset" />
          </mxGeometry>
        </mxCell>
        <mxCell id="70YwTGDPezHO6x178m7y-86" value="Yard" style="whiteSpace=wrap;html=1;rounded=0;" parent="1" vertex="1">
          <mxGeometry x="1820" y="359" width="170" height="60" as="geometry" />
        </mxCell>
        <mxCell id="_iF7SoQvkyXgK8WLzw-X-3" value="" style="endArrow=none;html=1;rounded=0;exitX=0.5;exitY=0;exitDx=0;exitDy=0;entryX=0;entryY=0.5;entryDx=0;entryDy=0;" edge="1" parent="1" target="_iF7SoQvkyXgK8WLzw-X-4">
          <mxGeometry width="50" height="50" relative="1" as="geometry">
            <mxPoint x="1971.5" y="359" as="sourcePoint" />
            <mxPoint x="1916.5" y="200" as="targetPoint" />
          </mxGeometry>
        </mxCell>
        <mxCell id="_iF7SoQvkyXgK8WLzw-X-71" value="max_tiers" style="edgeLabel;html=1;align=center;verticalAlign=middle;resizable=0;points=[];" vertex="1" connectable="0" parent="_iF7SoQvkyXgK8WLzw-X-3">
          <mxGeometry x="0.7355" relative="1" as="geometry">
            <mxPoint y="-1" as="offset" />
          </mxGeometry>
        </mxCell>
        <mxCell id="_iF7SoQvkyXgK8WLzw-X-4" value="" style="ellipse;whiteSpace=wrap;html=1;aspect=fixed;rotation=-90;" vertex="1" parent="1">
          <mxGeometry x="1953" y="70" width="37" height="37" as="geometry" />
        </mxCell>
        <mxCell id="_iF7SoQvkyXgK8WLzw-X-7" value="" style="endArrow=none;html=1;rounded=0;exitX=0.5;exitY=0;exitDx=0;exitDy=0;entryX=0;entryY=0.5;entryDx=0;entryDy=0;" edge="1" parent="1" target="_iF7SoQvkyXgK8WLzw-X-8">
          <mxGeometry width="50" height="50" relative="1" as="geometry">
            <mxPoint x="1858.5" y="359" as="sourcePoint" />
            <mxPoint x="1803.5" y="200" as="targetPoint" />
          </mxGeometry>
        </mxCell>
        <mxCell id="_iF7SoQvkyXgK8WLzw-X-68" value="yard_code" style="edgeLabel;html=1;align=center;verticalAlign=middle;resizable=0;points=[];" vertex="1" connectable="0" parent="_iF7SoQvkyXgK8WLzw-X-7">
          <mxGeometry x="0.75" y="1" relative="1" as="geometry">
            <mxPoint y="-1" as="offset" />
          </mxGeometry>
        </mxCell>
        <mxCell id="_iF7SoQvkyXgK8WLzw-X-8" value="" style="ellipse;whiteSpace=wrap;html=1;aspect=fixed;rotation=-90;fillColor=black;" vertex="1" parent="1">
          <mxGeometry x="1840" y="150" width="37" height="37" as="geometry" />
        </mxCell>
        <mxCell id="_iF7SoQvkyXgK8WLzw-X-16" value="" style="endArrow=none;html=1;rounded=0;" edge="1" parent="1">
          <mxGeometry width="50" height="50" relative="1" as="geometry">
            <mxPoint x="1250" y="530" as="sourcePoint" />
            <mxPoint x="1250" y="530" as="targetPoint" />
            <Array as="points" />
          </mxGeometry>
        </mxCell>
        <mxCell id="_iF7SoQvkyXgK8WLzw-X-17" value="" style="endArrow=none;html=1;rounded=0;entryX=0;entryY=0.5;entryDx=0;entryDy=0;" edge="1" parent="1" target="_iF7SoQvkyXgK8WLzw-X-18" source="_iF7SoQvkyXgK8WLzw-X-46">
          <mxGeometry width="50" height="50" relative="1" as="geometry">
            <mxPoint x="1497" y="400" as="sourcePoint" />
            <mxPoint x="1500.75" y="542" as="targetPoint" />
          </mxGeometry>
        </mxCell>
        <mxCell id="_iF7SoQvkyXgK8WLzw-X-65" value="bay_number" style="edgeLabel;html=1;align=center;verticalAlign=middle;resizable=0;points=[];" vertex="1" connectable="0" parent="_iF7SoQvkyXgK8WLzw-X-17">
          <mxGeometry x="-0.3146" y="-1" relative="1" as="geometry">
            <mxPoint as="offset" />
          </mxGeometry>
        </mxCell>
        <mxCell id="_iF7SoQvkyXgK8WLzw-X-18" value="" style="ellipse;whiteSpace=wrap;html=1;aspect=fixed;rotation=-90;" vertex="1" parent="1">
          <mxGeometry x="1480" y="620" width="34.25" height="34.25" as="geometry" />
        </mxCell>
        <mxCell id="_iF7SoQvkyXgK8WLzw-X-20" value="" style="endArrow=none;html=1;rounded=0;entryX=0;entryY=0.5;entryDx=0;entryDy=0;" edge="1" parent="1" target="_iF7SoQvkyXgK8WLzw-X-21">
          <mxGeometry width="50" height="50" relative="1" as="geometry">
            <mxPoint x="1555" y="430" as="sourcePoint" />
            <mxPoint x="1558.13" y="561" as="targetPoint" />
            <Array as="points" />
          </mxGeometry>
        </mxCell>
        <mxCell id="_iF7SoQvkyXgK8WLzw-X-66" value="row_number" style="edgeLabel;html=1;align=center;verticalAlign=middle;resizable=0;points=[];" vertex="1" connectable="0" parent="_iF7SoQvkyXgK8WLzw-X-20">
          <mxGeometry x="0.2202" y="2" relative="1" as="geometry">
            <mxPoint as="offset" />
          </mxGeometry>
        </mxCell>
        <mxCell id="_iF7SoQvkyXgK8WLzw-X-21" value="" style="ellipse;whiteSpace=wrap;html=1;aspect=fixed;rotation=-90;" vertex="1" parent="1">
          <mxGeometry x="1537.38" y="660" width="34.25" height="34.25" as="geometry" />
        </mxCell>
        <mxCell id="_iF7SoQvkyXgK8WLzw-X-22" value="" style="endArrow=none;html=1;rounded=0;entryX=0;entryY=0.5;entryDx=0;entryDy=0;" edge="1" parent="1" target="_iF7SoQvkyXgK8WLzw-X-23" source="_iF7SoQvkyXgK8WLzw-X-49">
          <mxGeometry width="50" height="50" relative="1" as="geometry">
            <mxPoint x="1617" y="400" as="sourcePoint" />
            <mxPoint x="1620.75" y="542" as="targetPoint" />
          </mxGeometry>
        </mxCell>
        <mxCell id="_iF7SoQvkyXgK8WLzw-X-67" value="tier_number" style="edgeLabel;html=1;align=center;verticalAlign=middle;resizable=0;points=[];" vertex="1" connectable="0" parent="_iF7SoQvkyXgK8WLzw-X-22">
          <mxGeometry x="-0.2865" y="-2" relative="1" as="geometry">
            <mxPoint y="1" as="offset" />
          </mxGeometry>
        </mxCell>
        <mxCell id="_iF7SoQvkyXgK8WLzw-X-23" value="" style="ellipse;whiteSpace=wrap;html=1;aspect=fixed;rotation=-90;" vertex="1" parent="1">
          <mxGeometry x="1600" y="620" width="34.25" height="34.25" as="geometry" />
        </mxCell>
        <mxCell id="_iF7SoQvkyXgK8WLzw-X-24" value="" style="endArrow=none;html=1;rounded=0;entryX=0;entryY=0.5;entryDx=0;entryDy=0;" edge="1" parent="1" target="_iF7SoQvkyXgK8WLzw-X-25">
          <mxGeometry width="50" height="50" relative="1" as="geometry">
            <mxPoint x="1237" y="1350" as="sourcePoint" />
            <mxPoint x="1240.75" y="1492" as="targetPoint" />
          </mxGeometry>
        </mxCell>
        <mxCell id="_iF7SoQvkyXgK8WLzw-X-80" value="berth_code" style="edgeLabel;html=1;align=center;verticalAlign=middle;resizable=0;points=[];" vertex="1" connectable="0" parent="_iF7SoQvkyXgK8WLzw-X-24">
          <mxGeometry x="0.2451" y="3" relative="1" as="geometry">
            <mxPoint as="offset" />
          </mxGeometry>
        </mxCell>
        <mxCell id="_iF7SoQvkyXgK8WLzw-X-25" value="" style="ellipse;whiteSpace=wrap;html=1;aspect=fixed;rotation=-90;fillColor=black;" vertex="1" parent="1">
          <mxGeometry x="1220" y="1480" width="34.25" height="34.25" as="geometry" />
        </mxCell>
        <mxCell id="_iF7SoQvkyXgK8WLzw-X-26" value="" style="endArrow=none;html=1;rounded=0;entryX=0;entryY=0.5;entryDx=0;entryDy=0;" edge="1" parent="1" target="_iF7SoQvkyXgK8WLzw-X-27">
          <mxGeometry width="50" height="50" relative="1" as="geometry">
            <mxPoint x="1277.13" y="1350" as="sourcePoint" />
            <mxPoint x="1280.88" y="1492" as="targetPoint" />
          </mxGeometry>
        </mxCell>
        <mxCell id="_iF7SoQvkyXgK8WLzw-X-81" value="longitude" style="edgeLabel;html=1;align=center;verticalAlign=middle;resizable=0;points=[];" vertex="1" connectable="0" parent="_iF7SoQvkyXgK8WLzw-X-26">
          <mxGeometry x="0.5221" relative="1" as="geometry">
            <mxPoint as="offset" />
          </mxGeometry>
        </mxCell>
        <mxCell id="_iF7SoQvkyXgK8WLzw-X-27" value="" style="ellipse;whiteSpace=wrap;html=1;aspect=fixed;rotation=-90;" vertex="1" parent="1">
          <mxGeometry x="1260.12" y="1570" width="34.25" height="34.25" as="geometry" />
        </mxCell>
        <mxCell id="_iF7SoQvkyXgK8WLzw-X-28" value="" style="endArrow=none;html=1;rounded=0;entryX=0;entryY=0.5;entryDx=0;entryDy=0;" edge="1" parent="1" target="_iF7SoQvkyXgK8WLzw-X-29">
          <mxGeometry width="50" height="50" relative="1" as="geometry">
            <mxPoint x="1324.25" y="1350" as="sourcePoint" />
            <mxPoint x="1328" y="1492" as="targetPoint" />
          </mxGeometry>
        </mxCell>
        <mxCell id="_iF7SoQvkyXgK8WLzw-X-82" value="latitude" style="edgeLabel;html=1;align=center;verticalAlign=middle;resizable=0;points=[];" vertex="1" connectable="0" parent="_iF7SoQvkyXgK8WLzw-X-28">
          <mxGeometry x="0.2755" y="-1" relative="1" as="geometry">
            <mxPoint as="offset" />
          </mxGeometry>
        </mxCell>
        <mxCell id="_iF7SoQvkyXgK8WLzw-X-29" value="" style="ellipse;whiteSpace=wrap;html=1;aspect=fixed;rotation=-90;" vertex="1" parent="1">
          <mxGeometry x="1307.25" y="1480" width="34.25" height="34.25" as="geometry" />
        </mxCell>
        <mxCell id="_iF7SoQvkyXgK8WLzw-X-30" value="" style="endArrow=none;html=1;rounded=0;entryX=0;entryY=0.5;entryDx=0;entryDy=0;" edge="1" parent="1" target="_iF7SoQvkyXgK8WLzw-X-31">
          <mxGeometry width="50" height="50" relative="1" as="geometry">
            <mxPoint x="1437" y="870" as="sourcePoint" />
            <mxPoint x="1440.75" y="1012" as="targetPoint" />
          </mxGeometry>
        </mxCell>
        <mxCell id="_iF7SoQvkyXgK8WLzw-X-72" value="imo" style="edgeLabel;html=1;align=center;verticalAlign=middle;resizable=0;points=[];" vertex="1" connectable="0" parent="_iF7SoQvkyXgK8WLzw-X-30">
          <mxGeometry x="0.2602" y="-3" relative="1" as="geometry">
            <mxPoint as="offset" />
          </mxGeometry>
        </mxCell>
        <mxCell id="_iF7SoQvkyXgK8WLzw-X-31" value="" style="ellipse;whiteSpace=wrap;html=1;aspect=fixed;rotation=-90;fillColor=black;" vertex="1" parent="1">
          <mxGeometry x="1420" y="1000" width="34.25" height="34.25" as="geometry" />
        </mxCell>
        <mxCell id="_iF7SoQvkyXgK8WLzw-X-32" value="" style="endArrow=none;html=1;rounded=0;entryX=0;entryY=0.5;entryDx=0;entryDy=0;" edge="1" parent="1" target="_iF7SoQvkyXgK8WLzw-X-33">
          <mxGeometry width="50" height="50" relative="1" as="geometry">
            <mxPoint x="1486" y="870" as="sourcePoint" />
            <mxPoint x="1489.75" y="1012" as="targetPoint" />
          </mxGeometry>
        </mxCell>
        <mxCell id="_iF7SoQvkyXgK8WLzw-X-73" value="mmsi" style="edgeLabel;html=1;align=center;verticalAlign=middle;resizable=0;points=[];" vertex="1" connectable="0" parent="_iF7SoQvkyXgK8WLzw-X-32">
          <mxGeometry x="0.2298" y="-1" relative="1" as="geometry">
            <mxPoint as="offset" />
          </mxGeometry>
        </mxCell>
        <mxCell id="_iF7SoQvkyXgK8WLzw-X-33" value="" style="ellipse;whiteSpace=wrap;html=1;aspect=fixed;rotation=-90;fillColor=black;" vertex="1" parent="1">
          <mxGeometry x="1469" y="1000" width="34.25" height="34.25" as="geometry" />
        </mxCell>
        <mxCell id="_iF7SoQvkyXgK8WLzw-X-34" value="" style="endArrow=none;html=1;rounded=0;entryX=0;entryY=0.5;entryDx=0;entryDy=0;" edge="1" parent="1" target="_iF7SoQvkyXgK8WLzw-X-35">
          <mxGeometry width="50" height="50" relative="1" as="geometry">
            <mxPoint x="1527" y="870" as="sourcePoint" />
            <mxPoint x="1530.75" y="1012" as="targetPoint" />
          </mxGeometry>
        </mxCell>
        <mxCell id="_iF7SoQvkyXgK8WLzw-X-74" value="call_sign" style="edgeLabel;html=1;align=center;verticalAlign=middle;resizable=0;points=[];" vertex="1" connectable="0" parent="_iF7SoQvkyXgK8WLzw-X-34">
          <mxGeometry x="0.2298" y="1" relative="1" as="geometry">
            <mxPoint as="offset" />
          </mxGeometry>
        </mxCell>
        <mxCell id="_iF7SoQvkyXgK8WLzw-X-35" value="" style="ellipse;whiteSpace=wrap;html=1;aspect=fixed;rotation=-90;fillColor=black;" vertex="1" parent="1">
          <mxGeometry x="1510" y="1000" width="34.25" height="34.25" as="geometry" />
        </mxCell>
        <mxCell id="_iF7SoQvkyXgK8WLzw-X-36" value="" style="endArrow=none;html=1;rounded=0;entryX=0;entryY=0.5;entryDx=0;entryDy=0;" edge="1" parent="1" target="_iF7SoQvkyXgK8WLzw-X-37">
          <mxGeometry width="50" height="50" relative="1" as="geometry">
            <mxPoint x="1588.63" y="870" as="sourcePoint" />
            <mxPoint x="1592.38" y="1012" as="targetPoint" />
          </mxGeometry>
        </mxCell>
        <mxCell id="_iF7SoQvkyXgK8WLzw-X-75" value="name" style="edgeLabel;html=1;align=center;verticalAlign=middle;resizable=0;points=[];" vertex="1" connectable="0" parent="_iF7SoQvkyXgK8WLzw-X-36">
          <mxGeometry x="0.2755" y="-1" relative="1" as="geometry">
            <mxPoint as="offset" />
          </mxGeometry>
        </mxCell>
        <mxCell id="_iF7SoQvkyXgK8WLzw-X-37" value="" style="ellipse;whiteSpace=wrap;html=1;aspect=fixed;rotation=-90;" vertex="1" parent="1">
          <mxGeometry x="1571.63" y="1000" width="34.25" height="34.25" as="geometry" />
        </mxCell>
        <mxCell id="_iF7SoQvkyXgK8WLzw-X-38" value="" style="endArrow=none;html=1;rounded=0;entryX=0;entryY=0.5;entryDx=0;entryDy=0;" edge="1" parent="1" target="_iF7SoQvkyXgK8WLzw-X-39">
          <mxGeometry width="50" height="50" relative="1" as="geometry">
            <mxPoint x="1651.25" y="870" as="sourcePoint" />
            <mxPoint x="1655" y="1012" as="targetPoint" />
          </mxGeometry>
        </mxCell>
        <mxCell id="_iF7SoQvkyXgK8WLzw-X-76" value="length" style="edgeLabel;html=1;align=center;verticalAlign=middle;resizable=0;points=[];" vertex="1" connectable="0" parent="_iF7SoQvkyXgK8WLzw-X-38">
          <mxGeometry x="0.2755" relative="1" as="geometry">
            <mxPoint as="offset" />
          </mxGeometry>
        </mxCell>
        <mxCell id="_iF7SoQvkyXgK8WLzw-X-39" value="" style="ellipse;whiteSpace=wrap;html=1;aspect=fixed;rotation=-90;" vertex="1" parent="1">
          <mxGeometry x="1634.25" y="1000" width="34.25" height="34.25" as="geometry" />
        </mxCell>
        <mxCell id="_iF7SoQvkyXgK8WLzw-X-40" value="" style="endArrow=none;html=1;rounded=0;entryX=0;entryY=0.5;entryDx=0;entryDy=0;" edge="1" parent="1" target="_iF7SoQvkyXgK8WLzw-X-41">
          <mxGeometry width="50" height="50" relative="1" as="geometry">
            <mxPoint x="1717" y="870" as="sourcePoint" />
            <mxPoint x="1720.75" y="1012" as="targetPoint" />
          </mxGeometry>
        </mxCell>
        <mxCell id="_iF7SoQvkyXgK8WLzw-X-77" value="width" style="edgeLabel;html=1;align=center;verticalAlign=middle;resizable=0;points=[];" vertex="1" connectable="0" parent="_iF7SoQvkyXgK8WLzw-X-40">
          <mxGeometry x="0.2298" y="-3" relative="1" as="geometry">
            <mxPoint as="offset" />
          </mxGeometry>
        </mxCell>
        <mxCell id="_iF7SoQvkyXgK8WLzw-X-41" value="" style="ellipse;whiteSpace=wrap;html=1;aspect=fixed;rotation=-90;" vertex="1" parent="1">
          <mxGeometry x="1700" y="1000" width="34.25" height="34.25" as="geometry" />
        </mxCell>
        <mxCell id="_iF7SoQvkyXgK8WLzw-X-47" value="" style="endArrow=none;html=1;rounded=0;entryX=0;entryY=0.5;entryDx=0;entryDy=0;" edge="1" parent="1" target="_iF7SoQvkyXgK8WLzw-X-46">
          <mxGeometry width="50" height="50" relative="1" as="geometry">
            <mxPoint x="1497" y="400" as="sourcePoint" />
            <mxPoint x="1497" y="583" as="targetPoint" />
          </mxGeometry>
        </mxCell>
        <mxCell id="_iF7SoQvkyXgK8WLzw-X-46" value="" style="ellipse;whiteSpace=wrap;html=1;aspect=fixed;rotation=-90;fillColor=black;" vertex="1" parent="1">
          <mxGeometry x="1480" y="460" width="34.25" height="34.25" as="geometry" />
        </mxCell>
        <mxCell id="_iF7SoQvkyXgK8WLzw-X-48" value="" style="ellipse;whiteSpace=wrap;html=1;aspect=fixed;rotation=-90;fillColor=black;" vertex="1" parent="1">
          <mxGeometry x="1537.37" y="460" width="34.25" height="34.25" as="geometry" />
        </mxCell>
        <mxCell id="_iF7SoQvkyXgK8WLzw-X-50" value="" style="endArrow=none;html=1;rounded=0;entryX=0;entryY=0.5;entryDx=0;entryDy=0;" edge="1" parent="1" target="_iF7SoQvkyXgK8WLzw-X-49">
          <mxGeometry width="50" height="50" relative="1" as="geometry">
            <mxPoint x="1617" y="400" as="sourcePoint" />
            <mxPoint x="1617" y="594" as="targetPoint" />
          </mxGeometry>
        </mxCell>
        <mxCell id="_iF7SoQvkyXgK8WLzw-X-49" value="" style="ellipse;whiteSpace=wrap;html=1;aspect=fixed;rotation=-90;fillColor=black;" vertex="1" parent="1">
          <mxGeometry x="1600" y="460" width="34.25" height="34.25" as="geometry" />
        </mxCell>
        <mxCell id="_iF7SoQvkyXgK8WLzw-X-51" value="" style="endArrow=none;html=1;rounded=0;exitX=0.5;exitY=1;exitDx=0;exitDy=0;entryX=0.5;entryY=0;entryDx=0;entryDy=0;" edge="1" parent="1" source="_iF7SoQvkyXgK8WLzw-X-48" target="_iF7SoQvkyXgK8WLzw-X-49">
          <mxGeometry width="50" height="50" relative="1" as="geometry">
            <mxPoint x="1630" y="610" as="sourcePoint" />
            <mxPoint x="1680" y="560" as="targetPoint" />
          </mxGeometry>
        </mxCell>
        <mxCell id="_iF7SoQvkyXgK8WLzw-X-53" value="" style="endArrow=none;html=1;rounded=0;exitX=0.5;exitY=1;exitDx=0;exitDy=0;entryX=0.5;entryY=0;entryDx=0;entryDy=0;" edge="1" parent="1" source="_iF7SoQvkyXgK8WLzw-X-46" target="_iF7SoQvkyXgK8WLzw-X-48">
          <mxGeometry width="50" height="50" relative="1" as="geometry">
            <mxPoint x="1582" y="487" as="sourcePoint" />
            <mxPoint x="1530" y="477" as="targetPoint" />
            <Array as="points" />
          </mxGeometry>
        </mxCell>
        <mxCell id="_iF7SoQvkyXgK8WLzw-X-91" value="" style="endArrow=none;html=1;rounded=0;entryX=0;entryY=0.5;entryDx=0;entryDy=0;exitX=1;exitY=0.5;exitDx=0;exitDy=0;" edge="1" parent="1" source="70YwTGDPezHO6x178m7y-59" target="70YwTGDPezHO6x178m7y-84">
          <mxGeometry width="50" height="50" relative="1" as="geometry">
            <mxPoint x="1330" y="500" as="sourcePoint" />
            <mxPoint x="1414.25" y="389" as="targetPoint" />
          </mxGeometry>
        </mxCell>
        <mxCell id="_iF7SoQvkyXgK8WLzw-X-93" value="(0,1)" style="edgeLabel;html=1;align=center;verticalAlign=middle;resizable=0;points=[];" vertex="1" connectable="0" parent="_iF7SoQvkyXgK8WLzw-X-91">
          <mxGeometry x="-0.3264" y="1" relative="1" as="geometry">
            <mxPoint as="offset" />
          </mxGeometry>
        </mxCell>
        <mxCell id="_iF7SoQvkyXgK8WLzw-X-95" value="" style="endArrow=none;html=1;rounded=0;exitX=0.5;exitY=1;exitDx=0;exitDy=0;entryX=0;entryY=0.5;entryDx=0;entryDy=0;" edge="1" parent="1" source="_iF7SoQvkyXgK8WLzw-X-49" target="_iF7SoQvkyXgK8WLzw-X-97">
          <mxGeometry width="50" height="50" relative="1" as="geometry">
            <mxPoint x="1660" y="469" as="sourcePoint" />
            <mxPoint x="1670" y="410" as="targetPoint" />
            <Array as="points">
              <mxPoint x="1727" y="477" />
            </Array>
          </mxGeometry>
        </mxCell>
        <mxCell id="_iF7SoQvkyXgK8WLzw-X-98" value="" style="endArrow=none;html=1;rounded=0;exitX=1;exitY=0.5;exitDx=0;exitDy=0;entryX=0.5;entryY=0;entryDx=0;entryDy=0;" edge="1" parent="1" source="70YwTGDPezHO6x178m7y-84" target="_iF7SoQvkyXgK8WLzw-X-97">
          <mxGeometry relative="1" as="geometry">
            <mxPoint x="1640" y="389" as="sourcePoint" />
            <mxPoint x="1740" y="389" as="targetPoint" />
          </mxGeometry>
        </mxCell>
        <mxCell id="_iF7SoQvkyXgK8WLzw-X-121" value="(0,n)" style="edgeLabel;html=1;align=center;verticalAlign=middle;resizable=0;points=[];" vertex="1" connectable="0" parent="_iF7SoQvkyXgK8WLzw-X-98">
          <mxGeometry x="-0.3444" y="1" relative="1" as="geometry">
            <mxPoint x="137" y="1" as="offset" />
          </mxGeometry>
        </mxCell>
        <mxCell id="_iF7SoQvkyXgK8WLzw-X-97" value="" style="ellipse;whiteSpace=wrap;html=1;aspect=fixed;rotation=-90;fillColor=black;" vertex="1" parent="1">
          <mxGeometry x="1710" y="371.88" width="34.25" height="34.25" as="geometry" />
        </mxCell>
        <mxCell id="_iF7SoQvkyXgK8WLzw-X-102" value="" style="endArrow=none;html=1;rounded=0;entryX=0;entryY=0.5;entryDx=0;entryDy=0;exitX=0.5;exitY=1;exitDx=0;exitDy=0;" edge="1" parent="1" source="_iF7SoQvkyXgK8WLzw-X-104" target="70YwTGDPezHO6x178m7y-74">
          <mxGeometry width="50" height="50" relative="1" as="geometry">
            <mxPoint x="460" y="900" as="sourcePoint" />
            <mxPoint x="510" y="880" as="targetPoint" />
          </mxGeometry>
        </mxCell>
        <mxCell id="_iF7SoQvkyXgK8WLzw-X-109" value="name" style="edgeLabel;html=1;align=center;verticalAlign=middle;resizable=0;points=[];" vertex="1" connectable="0" parent="_iF7SoQvkyXgK8WLzw-X-102">
          <mxGeometry x="-0.6891" y="2" relative="1" as="geometry">
            <mxPoint as="offset" />
          </mxGeometry>
        </mxCell>
        <mxCell id="_iF7SoQvkyXgK8WLzw-X-104" value="" style="ellipse;whiteSpace=wrap;html=1;aspect=fixed;rotation=-90;" vertex="1" parent="1">
          <mxGeometry x="400" y="881.5" width="37" height="37" as="geometry" />
        </mxCell>
        <mxCell id="_iF7SoQvkyXgK8WLzw-X-105" value="" style="endArrow=none;html=1;rounded=0;entryX=0.5;entryY=0;entryDx=0;entryDy=0;exitX=0.5;exitY=1;exitDx=0;exitDy=0;" edge="1" parent="1" target="_iF7SoQvkyXgK8WLzw-X-106">
          <mxGeometry width="50" height="50" relative="1" as="geometry">
            <mxPoint x="685" y="899.47" as="sourcePoint" />
            <mxPoint x="813" y="899.47" as="targetPoint" />
          </mxGeometry>
        </mxCell>
        <mxCell id="_iF7SoQvkyXgK8WLzw-X-108" value="city_id" style="edgeLabel;html=1;align=center;verticalAlign=middle;resizable=0;points=[];" vertex="1" connectable="0" parent="_iF7SoQvkyXgK8WLzw-X-105">
          <mxGeometry x="0.5172" y="3" relative="1" as="geometry">
            <mxPoint as="offset" />
          </mxGeometry>
        </mxCell>
        <mxCell id="_iF7SoQvkyXgK8WLzw-X-106" value="" style="ellipse;whiteSpace=wrap;html=1;aspect=fixed;rotation=-90;fillColor=black;" vertex="1" parent="1">
          <mxGeometry x="820" y="881.5" width="37" height="37" as="geometry" />
        </mxCell>
        <mxCell id="_iF7SoQvkyXgK8WLzw-X-115" value="" style="endArrow=none;html=1;rounded=0;exitX=1;exitY=0.5;exitDx=0;exitDy=0;entryX=0;entryY=0.5;entryDx=0;entryDy=0;" edge="1" parent="1" source="_iF7SoQvkyXgK8WLzw-X-112" target="_iF7SoQvkyXgK8WLzw-X-114">
          <mxGeometry relative="1" as="geometry" />
        </mxCell>
        <mxCell id="_iF7SoQvkyXgK8WLzw-X-117" value="(0,n)" style="edgeLabel;html=1;align=center;verticalAlign=middle;resizable=0;points=[];" vertex="1" connectable="0" parent="_iF7SoQvkyXgK8WLzw-X-115">
          <mxGeometry x="0.5938" y="-2" relative="1" as="geometry">
            <mxPoint as="offset" />
          </mxGeometry>
        </mxCell>
        <mxCell id="_iF7SoQvkyXgK8WLzw-X-112" value="Has" style="rhombus;whiteSpace=wrap;html=1;rounded=0;" vertex="1" parent="1">
          <mxGeometry x="2140" y="349" width="80" height="80" as="geometry" />
        </mxCell>
        <mxCell id="_iF7SoQvkyXgK8WLzw-X-114" value="Yard_type" style="whiteSpace=wrap;html=1;rounded=0;" vertex="1" parent="1">
          <mxGeometry x="2380" y="359" width="120" height="60" as="geometry" />
        </mxCell>
        <mxCell id="_iF7SoQvkyXgK8WLzw-X-122" value="" style="endArrow=none;html=1;rounded=0;entryX=0;entryY=0.5;entryDx=0;entryDy=0;" edge="1" parent="1" target="_iF7SoQvkyXgK8WLzw-X-124">
          <mxGeometry width="50" height="50" relative="1" as="geometry">
            <mxPoint x="624.88" y="1300" as="sourcePoint" />
            <mxPoint x="628.63" y="1442" as="targetPoint" />
          </mxGeometry>
        </mxCell>
        <mxCell id="_iF7SoQvkyXgK8WLzw-X-123" value="name" style="edgeLabel;html=1;align=center;verticalAlign=middle;resizable=0;points=[];" vertex="1" connectable="0" parent="_iF7SoQvkyXgK8WLzw-X-122">
          <mxGeometry x="0.2451" y="3" relative="1" as="geometry">
            <mxPoint as="offset" />
          </mxGeometry>
        </mxCell>
        <mxCell id="_iF7SoQvkyXgK8WLzw-X-124" value="" style="ellipse;whiteSpace=wrap;html=1;aspect=fixed;rotation=-90;fillColor=black;" vertex="1" parent="1">
          <mxGeometry x="607.88" y="1430" width="34.25" height="34.25" as="geometry" />
        </mxCell>
      </root>
    </mxGraphModel>
  </diagram>
</mxfile>
